<svg width="34" height="33" viewBox="0 0 34 33" fill="none" xmlns="http://www.w3.org/2000/svg">
<path d="M33.1427 16.2469C33.1427 25.138 25.8513 32.3457 16.857 32.3457C7.86265 32.3457 0.571289 25.138 0.571289 16.2469C0.571289 7.35585 7.86265 0.148193 16.857 0.148193C25.8513 0.148193 33.1427 7.35585 33.1427 16.2469Z" fill="#313131"/>
<path d="M24.1855 11.274C24.1855 10.0692 23.1097 9.0061 21.8904 9.0061H12.6379C11.4186 9.0061 10.3428 10.0692 10.3428 11.274V20.4166C10.3428 21.6215 11.4186 22.6846 12.6379 22.6846H17.3V17.5108H15.5786V15.2429H17.3V14.3216C17.3 12.7624 18.4476 11.4158 19.8821 11.4158H21.7469V13.6837H19.8821C19.6669 13.6837 19.4517 13.8963 19.4517 14.3216V15.2429H21.7469V17.5108H19.4517V22.6846H21.8904C23.1097 22.6846 24.1855 21.6215 24.1855 20.4166V11.274Z" fill="#C7C7C7"/>
</svg>
