<svg width="34" height="33" viewBox="0 0 34 33" fill="none" xmlns="http://www.w3.org/2000/svg">
<ellipse cx="17.0001" cy="16.2469" rx="16.2857" ry="16.0988" fill="#313131"/>
<path d="M22.3588 9.80884H12.4558C11.3377 9.80884 10.4858 10.6508 10.4858 11.7559V21.5439C10.4858 22.649 11.3377 23.491 12.4558 23.491H22.3588C23.4769 23.491 24.3287 22.649 24.3287 21.5439V11.7559C24.3287 10.6508 23.4769 9.80884 22.3588 9.80884ZM17.4073 20.7545C19.6967 20.7545 21.5602 18.9653 21.5602 16.8078C21.5602 16.4394 21.5069 16.0184 21.4004 15.7027H22.5718V21.2808C22.5718 21.5439 22.3588 21.807 22.0393 21.807H12.7752C12.509 21.807 12.2428 21.5965 12.2428 21.2808V15.6501H13.4674C13.3609 16.0184 13.3077 16.3868 13.3077 16.7551C13.2544 18.9653 15.1179 20.7545 17.4073 20.7545ZM17.4073 19.1758C15.9165 19.1758 14.7452 18.0181 14.7452 16.5973C14.7452 15.1764 15.9165 14.0187 17.4073 14.0187C18.8981 14.0187 20.0694 15.1764 20.0694 16.5973C20.0694 18.0707 18.8981 19.1758 17.4073 19.1758ZM22.5185 13.5451C22.5185 13.8609 22.2523 14.124 21.9328 14.124H20.4421C20.1226 14.124 19.8564 13.8609 19.8564 13.5451V12.1243C19.8564 11.8085 20.1226 11.5454 20.4421 11.5454H21.9328C22.2523 11.5454 22.5185 11.8085 22.5185 12.1243V13.5451Z" fill="#C7C7C7"/>
</svg>
