<svg width="33" height="33" viewBox="0 0 33 33" fill="none" xmlns="http://www.w3.org/2000/svg">
<ellipse cx="16.7144" cy="16.4452" rx="16.2857" ry="16.1007" fill="#313131"/>
<path d="M8.0429 16.7453L11.7871 18.1251L13.2467 22.7663C13.3101 23.0799 13.6909 23.1426 13.9447 22.9545L16.0389 21.2611C16.2293 21.0729 16.5466 21.0729 16.8004 21.2611L20.5446 23.958C20.7984 24.1461 21.1792 24.0207 21.2427 23.7071L24.0349 10.5362C24.0984 10.2226 23.7811 9.90899 23.4638 10.0344L8.0429 15.93C7.66213 16.0554 7.66213 16.6199 8.0429 16.7453ZM13.0563 17.4352L20.4177 12.9822C20.5446 12.9195 20.6715 13.1076 20.5446 13.1704L14.5159 18.7523C14.3255 18.9405 14.1351 19.1914 14.1351 19.505L13.9447 21.0102C13.9447 21.1984 13.6274 21.2611 13.564 21.0102L12.8024 18.2506C12.612 17.937 12.739 17.5607 13.0563 17.4352Z" fill="#C7C7C7"/>
</svg>
