<svg width="34" height="33" viewBox="0 0 34 33" fill="none" xmlns="http://www.w3.org/2000/svg">
<ellipse cx="16.8571" cy="16.4452" rx="16.2858" ry="16.1007" fill="#313131"/>
<path d="M24.8421 20.5587C24.8421 20.4919 24.7744 20.4919 24.7744 20.4251C24.504 19.8905 23.8956 19.2222 23.0843 18.4872C22.6787 18.1531 22.4759 17.8858 22.3407 17.7521C22.1379 17.4849 22.1379 17.2844 22.2055 17.0171C22.2731 16.8166 22.5435 16.4825 23.0167 15.8811C23.2871 15.547 23.4223 15.3465 23.6252 15.1461C24.6392 13.8096 25.1125 12.9409 24.9772 12.54L24.9097 12.4732C24.8421 12.4063 24.7744 12.3395 24.6392 12.3395C24.504 12.2727 24.3012 12.2727 24.0984 12.3395H21.5294C21.4618 12.3395 21.4618 12.3395 21.3266 12.3395C21.259 12.3395 21.1914 12.3395 21.1914 12.3395H21.1238H21.0562L20.9886 12.4063C20.921 12.4732 20.921 12.4732 20.921 12.54C20.6506 13.275 20.3125 13.8764 19.9745 14.5447C19.7717 14.8788 19.5689 15.2129 19.3661 15.4802C19.1633 15.7475 19.0281 15.9479 18.8929 16.0816C18.7576 16.2152 18.6224 16.282 18.5548 16.4157C18.4872 16.4825 18.352 16.5493 18.352 16.4825C18.2844 16.4825 18.2168 16.4825 18.2168 16.4157C18.1492 16.3489 18.0816 16.282 18.014 16.2152C17.9464 16.1484 17.9464 16.0148 17.8788 15.8811C17.8788 15.7475 17.8788 15.6138 17.8788 15.547C17.8788 15.4802 17.8788 15.2797 17.8788 15.1461C17.8788 14.9456 17.8788 14.8119 17.8788 14.7451C17.8788 14.5447 17.8788 14.2774 17.8788 14.0101C17.8788 13.7428 17.8788 13.5423 17.8788 13.4087C17.8788 13.275 17.8788 13.0746 17.8788 12.9409C17.8788 12.7404 17.8788 12.6068 17.8788 12.54C17.8788 12.4732 17.8112 12.3395 17.8112 12.2727C17.7436 12.2059 17.676 12.139 17.6084 12.0722C17.5408 12.0054 17.4056 12.0054 17.338 11.9386C16.9999 11.8718 16.5943 11.8049 16.1211 11.8049C15.0394 11.8049 14.2958 11.8718 14.0253 12.0054C13.8901 12.0722 13.7549 12.139 13.6873 12.2727C13.5521 12.4063 13.5521 12.4732 13.6197 12.4732C13.9577 12.54 14.2282 12.6736 14.3634 12.8741L14.431 13.0077C14.4986 13.0746 14.4986 13.2082 14.5662 13.4087C14.6338 13.6091 14.6338 13.8096 14.6338 14.0769C14.6338 14.4778 14.6338 14.8788 14.6338 15.1461C14.6338 15.4802 14.5662 15.6806 14.5662 15.8811C14.5662 16.0816 14.4986 16.2152 14.431 16.282C14.3634 16.4157 14.3634 16.4825 14.2958 16.4825C14.2958 16.4825 14.2958 16.5493 14.2281 16.5493C14.1605 16.5493 14.0929 16.6162 13.9577 16.6162C13.8901 16.6162 13.7549 16.5493 13.6873 16.4825C13.5521 16.4157 13.4169 16.2821 13.3493 16.1484C13.2141 16.0148 13.0789 15.8143 12.9437 15.547C12.8085 15.2797 12.6056 15.0124 12.4704 14.6115L12.3352 14.3442C12.2676 14.2105 12.1324 13.9433 11.9972 13.6091C11.862 13.275 11.7268 13.0077 11.5916 12.6736C11.524 12.54 11.4564 12.4732 11.3888 12.4063H11.3212C11.3212 12.4063 11.2536 12.3395 11.186 12.3395C11.1183 12.3395 11.0508 12.2727 10.9831 12.2727H8.54938C8.27896 12.2727 8.14376 12.3395 8.07615 12.4063L8.00854 12.4732C8.00854 12.4732 8.00854 12.54 8.00854 12.6068C8.00854 12.6736 8.00855 12.7404 8.07615 12.8741C8.41418 13.676 8.8198 14.4778 9.22543 15.2797C9.63105 16.0148 10.0367 16.683 10.3071 17.1507C10.6451 17.6185 10.9155 18.0863 11.2536 18.4872C11.5916 18.8881 11.7944 19.1554 11.862 19.2891C11.9972 19.4227 12.0648 19.4895 12.1324 19.5564L12.3352 19.7568C12.4704 19.8905 12.6733 20.0909 12.9437 20.2914C13.2141 20.4919 13.5521 20.6923 13.8901 20.8928C14.2281 21.0933 14.6338 21.2269 15.0394 21.3606C15.5126 21.4942 15.9183 21.561 16.3239 21.4942H17.338C17.5408 21.4942 17.676 21.4274 17.8112 21.2937L17.8788 21.2269C17.8788 21.1601 17.9464 21.1601 17.9464 21.0933C17.9464 21.0265 17.9464 20.9596 17.9464 20.826C17.9464 20.5587 17.9464 20.3582 18.014 20.1578C18.0816 19.9573 18.0816 19.8237 18.1492 19.69C18.2168 19.5564 18.2844 19.4895 18.352 19.4227C18.4196 19.3559 18.4872 19.2891 18.4872 19.2891H18.5548C18.69 19.2222 18.8929 19.2891 19.0281 19.4227C19.2309 19.5564 19.4337 19.7568 19.5689 19.9573C19.7041 20.1578 19.9069 20.3582 20.1774 20.6255C20.4478 20.8928 20.6506 21.0933 20.7858 21.1601L20.9886 21.2937C21.1238 21.3606 21.259 21.4274 21.4618 21.4942C21.6646 21.561 21.7998 21.561 21.9351 21.561L24.2336 21.4942C24.4364 21.4942 24.6392 21.4274 24.7744 21.3606C24.9097 21.2938 24.9772 21.2269 24.9772 21.0933C24.9772 21.0265 24.9772 20.8928 24.9772 20.826C24.842 20.6923 24.8421 20.6255 24.8421 20.5587Z" fill="#C7C7C7"/>
</svg>
