<svg width="33" height="33" viewBox="0 0 33 33" fill="none" xmlns="http://www.w3.org/2000/svg">
<path d="M32.5714 16.2469C32.5714 25.138 25.2801 32.3457 16.2857 32.3457C7.29136 32.3457 0 25.138 0 16.2469C0 7.35585 7.29136 0.148193 16.2857 0.148193C25.2801 0.148193 32.5714 7.35585 32.5714 16.2469Z" fill="#313131"/>
<path d="M23.3805 15.3736C23.3805 15.0613 23.3279 14.6971 23.3279 14.2808C23.2752 13.8645 23.2226 13.4482 23.1699 13.0839C23.0647 12.6676 22.9067 12.3554 22.5909 12.0952C22.3277 11.835 21.9592 11.6789 21.5907 11.6268C20.38 11.4707 18.5902 11.4187 16.1688 11.4187C13.7473 11.4187 11.9049 11.4707 10.7468 11.6268C10.3783 11.6789 10.0098 11.835 9.74664 12.0952C9.48344 12.3554 9.27287 12.6676 9.16759 13.0839C9.06231 13.4482 9.00967 13.8124 9.00967 14.2808C8.95703 14.6971 8.95703 15.0613 8.95703 15.3736C8.95703 15.6858 8.95703 16.0501 8.95703 16.5704C8.95703 17.0908 8.95703 17.5071 8.95703 17.7673C8.95703 18.0795 9.00967 18.4438 9.00967 18.8601C9.06232 19.2764 9.11495 19.6927 9.16759 20.057C9.27287 20.4733 9.43079 20.7855 9.74664 21.0457C10.0098 21.3059 10.3783 21.462 10.7468 21.514C11.9575 21.6701 13.7473 21.7222 16.1688 21.7222C18.5902 21.7222 20.4326 21.6701 21.5907 21.514C21.9592 21.462 22.3277 21.3059 22.5909 21.0457C22.8541 20.7855 23.0647 20.4733 23.1699 20.057C23.2752 19.6927 23.3279 19.3284 23.3279 18.8601C23.3805 18.4438 23.3805 18.0795 23.3805 17.7673C23.3805 17.4551 23.3805 17.0908 23.3805 16.5704C23.3805 16.0501 23.3805 15.6338 23.3805 15.3736ZM18.9587 16.9867L14.8001 19.5366C14.7475 19.5886 14.6422 19.6407 14.5369 19.6407C14.4316 19.6407 14.379 19.6407 14.2737 19.5886C14.1158 19.4845 14.0105 19.3284 14.0105 19.1203V13.9685C14.0105 13.7604 14.1158 13.6043 14.2737 13.5002C14.4316 13.3961 14.6422 13.3961 14.8001 13.5002L18.9587 16.0501C19.1166 16.1541 19.2219 16.3102 19.2219 16.4664C19.2219 16.6225 19.1166 16.8827 18.9587 16.9867Z" fill="#C7C7C7"/>
</svg>
